<?xml version="1.0" encoding="UTF-8"?>
<svg width="752pt" height="752pt" version="1.1" viewBox="0 0 752 752" xmlns="http://www.w3.org/2000/svg">
    <path d="m529.82 430.46c-4.1797 0.039062-8.3203 0.80469-12.234 2.2695l-115.93-157.86v-0.003906c7.6758-8.6055 10.617-20.438 7.875-31.637-2.7422-11.199-10.824-20.332-21.605-24.418-10.781-4.0898-22.887-2.6055-32.363 3.9609-9.4766 6.5664-15.117 17.379-15.074 28.91 0 8.5586 3.1641 16.812 8.8789 23.184l-116.42 158.55c-4.4141-1.9492-9.1875-2.957-14.012-2.957-12.465-0.082032-24.039 6.4492-30.414 17.164-6.3711 10.715-6.5898 24.004-0.57031 34.918 6.0195 10.918 17.375 17.824 29.836 18.152 12.465 0.32422 24.164-5.9766 30.746-16.562l92.152 46.668c-0.96094 3.2031-1.4922 6.5195-1.5781 9.8633-0.51172 9.625 2.957 19.039 9.5898 26.031 6.6328 6.9961 15.848 10.953 25.484 10.953 9.6406 0 18.855-3.957 25.484-10.953 6.6328-6.9922 10.102-16.406 9.5898-26.031-0.03125-2.625-0.35938-5.2422-0.98438-7.793l92.547-47.754h-0.003906c6.9141 10.141 18.633 15.922 30.887 15.238 12.254-0.67969 23.258-7.7305 29.004-18.574 5.7461-10.844 5.3945-23.906-0.92578-34.43-6.3203-10.52-17.684-16.965-29.957-16.992zm-153.82-199.4c5.2031 0.12891 10.145 2.3086 13.75 6.0664 3.6016 3.7539 5.5742 8.7812 5.4883 13.984-0.085937 5.207-2.2266 10.164-5.9492 13.801-3.7266 3.6328-8.7383 5.6484-13.941 5.6055-5.2031-0.042969-10.18-2.1367-13.848-5.832-3.6641-3.6953-5.7227-8.6875-5.7227-13.895 0.12891-5.2773 2.3164-10.297 6.0938-13.98 3.7812-3.6875 8.8516-5.7539 14.129-5.75zm-157.07 254.75c-5.3906 0-10.559-2.1406-14.371-5.9531s-5.9531-8.9805-5.9531-14.371 2.1406-10.559 5.9531-14.371 8.9805-5.9531 14.371-5.9531c5.3906 0 10.562 2.1406 14.371 5.9531 3.8125 3.8125 5.9531 8.9805 5.9531 14.371s-2.1406 10.559-5.9531 14.371c-3.8086 3.8125-8.9805 5.9531-14.371 5.9531zm34.629-15.688h0.003906c0.26172-1.5312 0.42578-3.082 0.49219-4.6367-0.042969-8.6641-3.3164-17-9.1758-23.383l116.42-158.85c2.1797 1.0078 4.4609 1.7656 6.8086 2.2695v220.81c-7.8789 1.3828-15.031 5.4609-20.227 11.543zm120.57 90.969c-5.3867 0-10.559-2.1406-14.371-5.9531-3.8086-3.8125-5.9531-8.9805-5.9531-14.371s2.1445-10.562 5.9531-14.371c3.8125-3.8125 8.9844-5.9531 14.371-5.9531 5.3906 0 10.562 2.1406 14.375 5.9531 3.8086 3.8086 5.9531 8.9805 5.9531 14.371s-2.1445 10.559-5.9531 14.371c-3.8125 3.8125-8.9844 5.9531-14.375 5.9531zm27.824-41.438c-4.7578-6.2422-11.457-10.719-19.043-12.73v-221.4c2.3477-0.50391 4.6328-1.2617 6.8086-2.2695l115.34 157.86c-6.4609 6.6094-10.012 15.523-9.8633 24.766 0.039062 1.9844 0.23828 3.9648 0.58984 5.9219zm128.26-33.84v-0.003906c-5.4219 0.16016-10.68-1.8555-14.609-5.5977-3.9258-3.7422-6.1953-8.8984-6.3047-14.32-0.10547-5.4219 1.9609-10.664 5.7383-14.555 3.7812-3.8906 8.957-6.1133 14.383-6.168 5.4219-0.050781 10.641 2.0625 14.496 5.8789 3.8555 3.8164 6.0273 9.0117 6.0312 14.438-0.027343 5.3477-2.1484 10.473-5.9141 14.273-3.7617 3.8008-8.8672 5.9727-14.215 6.0508z"/>
</svg>
