<?xml version="1.0" encoding="UTF-8"?>
<svg width="752pt" height="752pt" version="1.1" viewBox="0 0 752 752" xmlns="http://www.w3.org/2000/svg">
 <g>
  <path d="m290.76 196.04c0-5.2109-4.2617-9.4727-9.4727-9.4727l-85.246 0.003906h-1.8945c-0.47266 0-0.47266 0-0.94531 0.47266-0.47266 0-0.47266 0-0.94531 0.47266-0.47266 0-0.47266 0.47266-0.94531 0.47266 0 0-0.47266 0-0.47266 0.47266-0.94531 0.47266-1.8945 1.4219-2.8398 2.8398 0 0-0.47266 0.47266-0.47266 0.47266 0 0.47266-0.47266 0.47266-0.47266 0.94531s0 0.47266-0.47266 0.94531c0 0.47266 0 0.47266-0.47266 0.94531v1.8945 85.246c0 5.2109 4.2617 9.4727 9.4727 9.4727s9.4727-4.2617 9.4727-9.4727l-0.011719-62.977 116.03 116.03c1.8945 1.8945 4.2617 2.8398 6.6289 2.8398 2.3672 0 4.7344-0.94531 6.6289-2.8398 3.7891-3.7891 3.7891-9.4727 0-13.262l-115.55-116.03h62.512c5.2109 0 9.4727-4.2617 9.4727-9.4727z"/>
  <path d="m555.96 461.25c-5.2109 0-9.4727 4.2617-9.4727 9.4727v62.512l-116.02-116.03c-3.7891-3.7891-9.4727-3.7891-13.262 0s-3.7891 9.4727 0 13.262l116.03 116.03h-62.512c-5.2109 0-9.4727 4.2617-9.4727 9.4727 0 5.2109 4.2617 9.4727 9.4727 9.4727h85.246 1.8945c0.47266 0 0.47266 0 0.94531-0.47266 0.47266 0 0.47266 0 0.94531-0.47266 0.47266 0 0.47266-0.47266 0.94531-0.47266 0 0 0.47266 0 0.47266-0.47266 0.94531-0.47266 1.8945-1.4219 2.8398-2.8398l0.47266-0.47266c0-0.47266 0.47266-0.47266 0.47266-0.94531 0-0.47266 0-0.47266 0.47266-0.94531 0-0.47266 0-0.47266 0.47266-0.94531v-1.8945l0.007812-84.785c-0.47266-5.2109-4.7344-9.4727-9.9453-9.4727z"/>
  <path d="m564.96 193.2c0-0.47266 0-0.47266-0.47266-0.94531 0-0.47266-0.47266-0.47266-0.47266-0.94531 0 0 0-0.47266-0.47266-0.47266-0.47266-0.94531-1.4219-1.8945-2.8398-2.8398l-0.47266-0.47266c-0.47266 0-0.47266-0.47266-0.94531-0.47266s-0.47266 0-0.94531-0.47266c-0.47266 0-0.47266 0-0.94531-0.47266h-1.8945l-84.781-0.011719c-5.2109 0-9.4727 4.2617-9.4727 9.4727 0 5.2109 4.2617 9.4727 9.4727 9.4727h62.512l-116.03 116.5c-3.7891 3.7891-3.7891 9.4727 0 13.262 1.8945 1.8945 4.2617 2.8398 6.6289 2.8398 2.3672 0 4.7344-0.94531 6.6289-2.8398l116.03-116.03v62.512c0 5.2109 4.2617 9.4727 9.4727 9.4727 5.2109 0 9.4727-4.2617 9.4727-9.4727l-0.003906-85.246v-1.8945c-0.47266-0.47266-0.47266-0.47266-0.47266-0.94531z"/>
  <path d="m290.76 555.96c0-5.2109-4.2617-9.4727-9.4727-9.4727l-62.512 0.003907 116.03-116.03c3.7891-3.7891 3.7891-9.4727 0-13.262-3.7891-3.7891-9.4727-3.7891-13.262 0l-116.03 116.03v-62.512c0-5.2109-4.2617-9.4727-9.4727-9.4727-5.2109 0-9.4727 4.2617-9.4727 9.4727v85.246 1.8945c0 0.47266 0 0.47266 0.47266 0.94531 0 0.47266 0 0.47266 0.47266 0.94531 0 0.47266 0.47266 0.47266 0.47266 0.94531 0 0 0 0.47266 0.47266 0.47266 0.47266 0.94531 1.4219 1.8945 2.8398 2.8398 0 0 0.47266 0.47266 0.47266 0.47266 0.47266 0 0.47266 0.47266 0.94531 0.47266s0.47266 0 0.94531 0.47266c0.47266 0 0.47266 0 0.94531 0.47266h1.8945 85.246c4.75-0.46484 9.0117-4.7266 9.0117-9.9375z"/>
 </g>
</svg>
