<?xml version="1.0" encoding="UTF-8"?>
<svg width="752pt" height="752pt" version="1.1" viewBox="0 0 752 752" xmlns="http://www.w3.org/2000/svg">
    <path d="m360.31 185.61c-25.414 0-46.176 20.68-46.176 46.027 0 19.332 12.156 35.836 29.156 42.621l-16.871 60.973c-3.6328-0.70312-7.4141-1.0352-11.246-1.0352-16.555 0-31.539 6.8711-42.18 17.906l-28.266-23.086c3.9453-6.1484 6.2148-13.359 6.2148-21.164 0-21.973-17.977-39.664-39.812-39.664-21.836 0-39.664 17.688-39.664 39.664 0 21.812 17.797 39.516 39.664 39.516 10.668 0 20.363-4.2227 27.527-11.102l28.414 23.234c-6.5586 9.457-10.359 20.801-10.359 33.152 0 32.23 26.133 58.309 58.457 58.309 5.5352 0 10.902-0.79297 15.984-2.2188l17.316 46.766c-12.738 5.9375-21.754 18.695-21.754 33.594 0 20.496 16.898 37.293 37.441 37.293 20.543 0 37.293-16.801 37.293-37.293 0-20.496-16.75-37.145-37.293-37.145-2.2617 0-4.5078 0.20312-6.6602 0.59375l-17.465-47.062c10.824-5.0508 19.902-13.312 25.898-23.531l73.258 35.074c-0.49609 1.7773-0.88672 3.5469-0.88672 5.4766 0 11.535 9.4648 21.016 21.016 21.016 11.551 0 21.016-9.4805 21.016-21.016s-9.4648-21.016-21.016-21.016c-6.1914 0-11.824 2.8086-15.688 7.1055l-73.551-35.223c2.4531-6.4219 3.8477-13.438 3.8477-20.719 0-3.4102-0.32422-6.6641-0.88672-9.9141l138.08-35.371c5.2852 13.27 18.312 22.645 33.445 22.645 19.805 0 35.961-16.195 35.961-36.109 0-19.758-16.16-35.961-35.961-35.961-19.805 0-36.109 16.207-36.109 35.961 0 1.4609 0.14062 2.9336 0.29688 4.293l-138.08 35.371c-5.75-16.449-18.734-29.594-35.074-35.668l16.871-60.973c2.5703 0.44531 5.1484 0.73828 7.8438 0.73828 25.414 0 46.176-20.68 46.176-46.027 0-25.348-20.762-46.027-46.176-46.027zm0 9.4727c20.309 0 36.703 16.352 36.703 36.555 0 20.203-16.395 36.555-36.703 36.555-3.2734 0-6.457-0.38672-9.4727-1.1836h0.003906c-0.19531-0.0625-0.39453-0.11328-0.59375-0.14844-15.402-4.3359-26.641-18.488-26.641-35.223 0-20.203 16.395-36.555 36.703-36.555zm-149.18 82.582c16.766 0 30.34 13.336 30.34 30.191 0 16.645-13.602 30.043-30.34 30.043-16.734 0-30.191-13.402-30.191-30.043 0-16.855 13.426-30.191 30.191-30.191zm333.43 29.746c14.676 0 26.492 11.902 26.492 26.492 0 14.805-11.812 26.641-26.492 26.641-12.266 0-22.59-8.4727-25.602-19.684l0.003906-0.003907c-0.085938-0.20312-0.18359-0.40234-0.29688-0.58984-0.44141-2.0117-0.73828-4.1523-0.73828-6.3633 0-14.59 11.965-26.492 26.641-26.492zm-229.39 36.258c27.242 0 49.281 21.875 49.281 48.988 0 27.109-22.02 48.836-49.281 48.836s-48.984-21.707-48.984-48.836 21.742-48.988 48.984-48.988zm144.14 107.3c6.4375 0 11.543 5.1602 11.543 11.543 0 6.3867-5.1055 11.543-11.543 11.543s-11.543-5.1602-11.543-11.543c0-6.3867 5.1055-11.543 11.543-11.543zm-95.16 50.465c15.434 0 27.824 12.328 27.824 27.676 0 15.344-12.391 27.824-27.824 27.824s-27.973-12.477-27.973-27.824c0-15.344 12.535-27.676 27.973-27.676z" fill-rule="evenodd"/>
</svg>
